<mxfile host="app.diagrams.net" modified="2021-08-13T15:35:31.368Z" agent="5.0 (Windows NT 10.0; Win64; x64) AppleWebKit/537.36 (KHTML, like Gecko) Chrome/92.0.4515.131 Safari/537.36" etag="KUyr4xWo6PZ_DmoorJFa" version="14.9.6" type="github">
  <diagram id="R2lEEEUBdFMjLlhIrx00" name="Page-1">
    <mxGraphModel dx="465" dy="270" grid="1" gridSize="10" guides="1" tooltips="1" connect="1" arrows="1" fold="1" page="1" pageScale="1" pageWidth="850" pageHeight="1100" math="0" shadow="0" extFonts="Permanent Marker^https://fonts.googleapis.com/css?family=Permanent+Marker">
      <root>
        <mxCell id="0" />
        <mxCell id="1" parent="0" />
        <mxCell id="LhNx0IezDrV9IMbFQ53--1" value="Cart" style="swimlane;childLayout=stackLayout;horizontal=1;startSize=30;horizontalStack=0;rounded=1;fontSize=14;fontStyle=0;strokeWidth=2;resizeParent=0;resizeLast=1;shadow=0;dashed=0;align=center;" vertex="1" parent="1">
          <mxGeometry x="40" y="440" width="160" height="120" as="geometry" />
        </mxCell>
        <mxCell id="LhNx0IezDrV9IMbFQ53--2" value="Long id&#xa;Goods goods&#xa;Member member" style="align=left;strokeColor=none;fillColor=none;spacingLeft=4;fontSize=12;verticalAlign=top;resizable=0;rotatable=0;part=1;" vertex="1" parent="LhNx0IezDrV9IMbFQ53--1">
          <mxGeometry y="30" width="160" height="90" as="geometry" />
        </mxCell>
        <mxCell id="LhNx0IezDrV9IMbFQ53--3" value="Goods" style="swimlane;childLayout=stackLayout;horizontal=1;startSize=30;horizontalStack=0;rounded=1;fontSize=14;fontStyle=0;strokeWidth=2;resizeParent=0;resizeLast=1;shadow=0;dashed=0;align=center;" vertex="1" parent="1">
          <mxGeometry x="1040" y="360" width="160" height="210" as="geometry" />
        </mxCell>
        <mxCell id="LhNx0IezDrV9IMbFQ53--4" value="Long id&#xa;String goodsCode&#xa;String name&#xa;Money fullPrice&#xa;Integer count&#xa;String summary&#xa;SystemFile thumbnail&#xa;GoodsStatus sellingStatus&#xa; " style="align=left;strokeColor=none;fillColor=none;spacingLeft=4;fontSize=12;verticalAlign=top;resizable=0;rotatable=0;part=1;" vertex="1" parent="LhNx0IezDrV9IMbFQ53--3">
          <mxGeometry y="30" width="160" height="180" as="geometry" />
        </mxCell>
        <mxCell id="LhNx0IezDrV9IMbFQ53--6" value="Member" style="swimlane;childLayout=stackLayout;horizontal=1;startSize=30;horizontalStack=0;rounded=1;fontSize=14;fontStyle=0;strokeWidth=2;resizeParent=0;resizeLast=1;shadow=0;dashed=0;align=center;" vertex="1" parent="1">
          <mxGeometry x="40" y="680" width="180" height="120" as="geometry" />
        </mxCell>
        <mxCell id="LhNx0IezDrV9IMbFQ53--7" value="Long id&#xa;String email&#xa;String password&#xa;String name&#xa;ContactNumber phoneNumber" style="align=left;strokeColor=none;fillColor=none;spacingLeft=4;fontSize=12;verticalAlign=top;resizable=0;rotatable=0;part=1;" vertex="1" parent="LhNx0IezDrV9IMbFQ53--6">
          <mxGeometry y="30" width="180" height="90" as="geometry" />
        </mxCell>
        <mxCell id="LhNx0IezDrV9IMbFQ53--8" value="Likes" style="swimlane;childLayout=stackLayout;horizontal=1;startSize=30;horizontalStack=0;rounded=1;fontSize=14;fontStyle=0;strokeWidth=2;resizeParent=0;resizeLast=1;shadow=0;dashed=0;align=center;" vertex="1" parent="1">
          <mxGeometry x="320" y="440" width="160" height="120" as="geometry" />
        </mxCell>
        <mxCell id="LhNx0IezDrV9IMbFQ53--9" value="Long id&#xa;Goods goods&#xa;Member member" style="align=left;strokeColor=none;fillColor=none;spacingLeft=4;fontSize=12;verticalAlign=top;resizable=0;rotatable=0;part=1;" vertex="1" parent="LhNx0IezDrV9IMbFQ53--8">
          <mxGeometry y="30" width="160" height="90" as="geometry" />
        </mxCell>
        <mxCell id="LhNx0IezDrV9IMbFQ53--11" value="Sales" style="swimlane;childLayout=stackLayout;horizontal=1;startSize=30;horizontalStack=0;rounded=1;fontSize=14;fontStyle=0;strokeWidth=2;resizeParent=0;resizeLast=1;shadow=0;dashed=0;align=center;" vertex="1" parent="1">
          <mxGeometry x="600" y="440" width="160" height="120" as="geometry" />
        </mxCell>
        <mxCell id="LhNx0IezDrV9IMbFQ53--12" value="Long id&#xa;Goods goods (Unique)&#xa;Ratio discountPercent&#xa;LocalDateTime startAt&#xa;LocalDateTime endAt" style="align=left;strokeColor=none;fillColor=none;spacingLeft=4;fontSize=12;verticalAlign=top;resizable=0;rotatable=0;part=1;" vertex="1" parent="LhNx0IezDrV9IMbFQ53--11">
          <mxGeometry y="30" width="160" height="90" as="geometry" />
        </mxCell>
        <mxCell id="LhNx0IezDrV9IMbFQ53--13" value="Pay" style="swimlane;childLayout=stackLayout;horizontal=1;startSize=30;horizontalStack=0;rounded=1;fontSize=14;fontStyle=0;strokeWidth=2;resizeParent=0;resizeLast=1;shadow=0;dashed=0;align=center;" vertex="1" parent="1">
          <mxGeometry x="320" y="680" width="160" height="180" as="geometry" />
        </mxCell>
        <mxCell id="LhNx0IezDrV9IMbFQ53--14" value="String uuid&#xa;String memberId&#xa;Money payPrice&#xa;PayType type&#xa;Boolean isRefunded&#xa;" style="align=left;strokeColor=none;fillColor=none;spacingLeft=4;fontSize=12;verticalAlign=top;resizable=0;rotatable=0;part=1;" vertex="1" parent="LhNx0IezDrV9IMbFQ53--13">
          <mxGeometry y="30" width="160" height="150" as="geometry" />
        </mxCell>
        <mxCell id="LhNx0IezDrV9IMbFQ53--16" value="Pay History" style="swimlane;childLayout=stackLayout;horizontal=1;startSize=30;horizontalStack=0;rounded=1;fontSize=14;fontStyle=0;strokeWidth=2;resizeParent=0;resizeLast=1;shadow=0;dashed=0;align=center;" vertex="1" parent="1">
          <mxGeometry x="600" y="680" width="160" height="120" as="geometry" />
        </mxCell>
        <mxCell id="LhNx0IezDrV9IMbFQ53--17" value="Long id&#xa;Pay pay&#xa;Money payPrice&#xa;PayType type&#xa;String details" style="align=left;strokeColor=none;fillColor=none;spacingLeft=4;fontSize=12;verticalAlign=top;resizable=0;rotatable=0;part=1;" vertex="1" parent="LhNx0IezDrV9IMbFQ53--16">
          <mxGeometry y="30" width="160" height="90" as="geometry" />
        </mxCell>
        <mxCell id="LhNx0IezDrV9IMbFQ53--19" value="Member Coupon" style="swimlane;childLayout=stackLayout;horizontal=1;startSize=30;horizontalStack=0;rounded=1;fontSize=14;fontStyle=0;strokeWidth=2;resizeParent=0;resizeLast=1;shadow=0;dashed=0;align=center;" vertex="1" parent="1">
          <mxGeometry x="600" y="920" width="160" height="120" as="geometry" />
        </mxCell>
        <mxCell id="LhNx0IezDrV9IMbFQ53--20" value="Long id&#xa;Member member&#xa;Coupon coupon" style="align=left;strokeColor=none;fillColor=none;spacingLeft=4;fontSize=12;verticalAlign=top;resizable=0;rotatable=0;part=1;" vertex="1" parent="LhNx0IezDrV9IMbFQ53--19">
          <mxGeometry y="30" width="160" height="90" as="geometry" />
        </mxCell>
        <mxCell id="LhNx0IezDrV9IMbFQ53--21" value="&lt;Abstract&gt;Coupon" style="swimlane;childLayout=stackLayout;horizontal=1;startSize=30;horizontalStack=0;rounded=1;fontSize=14;fontStyle=0;strokeWidth=2;resizeParent=0;resizeLast=1;shadow=0;dashed=0;align=center;" vertex="1" parent="1">
          <mxGeometry x="360" y="1160" width="160" height="120" as="geometry" />
        </mxCell>
        <mxCell id="LhNx0IezDrV9IMbFQ53--22" value="String uuid&#xa;CouponType type&#xa;LocalDateTime expiryDate&#xa;Ratio amount" style="align=left;strokeColor=none;fillColor=none;spacingLeft=4;fontSize=12;verticalAlign=top;resizable=0;rotatable=0;part=1;" vertex="1" parent="LhNx0IezDrV9IMbFQ53--21">
          <mxGeometry y="30" width="160" height="90" as="geometry" />
        </mxCell>
        <mxCell id="LhNx0IezDrV9IMbFQ53--23" value="Fixed Rate Coupon" style="swimlane;childLayout=stackLayout;horizontal=1;startSize=30;horizontalStack=0;rounded=1;fontSize=14;fontStyle=0;strokeWidth=2;resizeParent=0;resizeLast=1;shadow=0;dashed=0;align=center;" vertex="1" parent="1">
          <mxGeometry x="360" y="1320" width="160" height="120" as="geometry" />
        </mxCell>
        <mxCell id="LhNx0IezDrV9IMbFQ53--24" value="Integer amount" style="align=left;strokeColor=none;fillColor=none;spacingLeft=4;fontSize=12;verticalAlign=top;resizable=0;rotatable=0;part=1;" vertex="1" parent="LhNx0IezDrV9IMbFQ53--23">
          <mxGeometry y="30" width="160" height="90" as="geometry" />
        </mxCell>
        <mxCell id="LhNx0IezDrV9IMbFQ53--25" value="Flat Rate Coupon" style="swimlane;childLayout=stackLayout;horizontal=1;startSize=30;horizontalStack=0;rounded=1;fontSize=14;fontStyle=0;strokeWidth=2;resizeParent=0;resizeLast=1;shadow=0;dashed=0;align=center;" vertex="1" parent="1">
          <mxGeometry x="560" y="1320" width="160" height="120" as="geometry" />
        </mxCell>
        <mxCell id="LhNx0IezDrV9IMbFQ53--26" value="double rate" style="align=left;strokeColor=none;fillColor=none;spacingLeft=4;fontSize=12;verticalAlign=top;resizable=0;rotatable=0;part=1;" vertex="1" parent="LhNx0IezDrV9IMbFQ53--25">
          <mxGeometry y="30" width="160" height="90" as="geometry" />
        </mxCell>
        <mxCell id="LhNx0IezDrV9IMbFQ53--27" value="Shipping Address" style="swimlane;childLayout=stackLayout;horizontal=1;startSize=30;horizontalStack=0;rounded=1;fontSize=14;fontStyle=0;strokeWidth=2;resizeParent=0;resizeLast=1;shadow=0;dashed=0;align=center;" vertex="1" parent="1">
          <mxGeometry x="360" y="1600" width="160" height="120" as="geometry" />
        </mxCell>
        <mxCell id="LhNx0IezDrV9IMbFQ53--28" value="Long id&#xa;Member member&#xa;String name&#xa;Address address" style="align=left;strokeColor=none;fillColor=none;spacingLeft=4;fontSize=12;verticalAlign=top;resizable=0;rotatable=0;part=1;" vertex="1" parent="LhNx0IezDrV9IMbFQ53--27">
          <mxGeometry y="30" width="160" height="90" as="geometry" />
        </mxCell>
        <mxCell id="LhNx0IezDrV9IMbFQ53--29" value="Delivery" style="swimlane;childLayout=stackLayout;horizontal=1;startSize=30;horizontalStack=0;rounded=1;fontSize=14;fontStyle=0;strokeWidth=2;resizeParent=0;resizeLast=1;shadow=0;dashed=0;align=center;" vertex="1" parent="1">
          <mxGeometry x="560" y="1760" width="180" height="140" as="geometry" />
        </mxCell>
        <mxCell id="LhNx0IezDrV9IMbFQ53--30" value="Long id&#xa;Orders orders&#xa;Address address&#xa;ContactNumber phoneNumber&#xa;shipping_request&#xa;DeliveryStatus deliveryStatus&#xa;" style="align=left;strokeColor=none;fillColor=none;spacingLeft=4;fontSize=12;verticalAlign=top;resizable=0;rotatable=0;part=1;" vertex="1" parent="LhNx0IezDrV9IMbFQ53--29">
          <mxGeometry y="30" width="180" height="110" as="geometry" />
        </mxCell>
        <mxCell id="LhNx0IezDrV9IMbFQ53--31" value="Orders" style="swimlane;childLayout=stackLayout;horizontal=1;startSize=30;horizontalStack=0;rounded=1;fontSize=14;fontStyle=0;strokeWidth=2;resizeParent=0;resizeLast=1;shadow=0;dashed=0;align=center;" vertex="1" parent="1">
          <mxGeometry x="930" y="1560" width="160" height="130" as="geometry" />
        </mxCell>
        <mxCell id="LhNx0IezDrV9IMbFQ53--32" value="String uuid&#xa;OrderStatus orderStatus&#xa;String orderEmail&#xa;String orderName&#xa;String orderPhone&#xa;String dType" style="align=left;strokeColor=none;fillColor=none;spacingLeft=4;fontSize=12;verticalAlign=top;resizable=0;rotatable=0;part=1;" vertex="1" parent="LhNx0IezDrV9IMbFQ53--31">
          <mxGeometry y="30" width="160" height="100" as="geometry" />
        </mxCell>
        <mxCell id="LhNx0IezDrV9IMbFQ53--34" value="Service Orders" style="swimlane;childLayout=stackLayout;horizontal=1;startSize=30;horizontalStack=0;rounded=1;fontSize=14;fontStyle=0;strokeWidth=2;resizeParent=0;resizeLast=1;shadow=0;dashed=0;align=center;" vertex="1" parent="1">
          <mxGeometry x="1160" y="1560" width="160" height="120" as="geometry" />
        </mxCell>
        <mxCell id="LhNx0IezDrV9IMbFQ53--36" value="Delivery Orders" style="swimlane;childLayout=stackLayout;horizontal=1;startSize=30;horizontalStack=0;rounded=1;fontSize=14;fontStyle=0;strokeWidth=2;resizeParent=0;resizeLast=1;shadow=0;dashed=0;align=center;" vertex="1" parent="1">
          <mxGeometry x="1160" y="1720" width="160" height="120" as="geometry" />
        </mxCell>
        <mxCell id="LhNx0IezDrV9IMbFQ53--38" value="Orders_Goods" style="swimlane;childLayout=stackLayout;horizontal=1;startSize=30;horizontalStack=0;rounded=1;fontSize=14;fontStyle=0;strokeWidth=2;resizeParent=0;resizeLast=1;shadow=0;dashed=0;align=center;" vertex="1" parent="1">
          <mxGeometry x="920" y="1320" width="160" height="120" as="geometry" />
        </mxCell>
        <mxCell id="LhNx0IezDrV9IMbFQ53--39" value="Goods goods&#xa;Orders orders&#xa;Coupon coupon&#xa;Money orderPrice&#xa;Integer count" style="align=left;strokeColor=none;fillColor=none;spacingLeft=4;fontSize=12;verticalAlign=top;resizable=0;rotatable=0;part=1;" vertex="1" parent="LhNx0IezDrV9IMbFQ53--38">
          <mxGeometry y="30" width="160" height="90" as="geometry" />
        </mxCell>
        <mxCell id="LhNx0IezDrV9IMbFQ53--40" value="Admin" style="swimlane;childLayout=stackLayout;horizontal=1;startSize=30;horizontalStack=0;rounded=1;fontSize=14;fontStyle=0;strokeWidth=2;resizeParent=0;resizeLast=1;shadow=0;dashed=0;align=center;" vertex="1" parent="1">
          <mxGeometry x="1430" y="1190" width="160" height="120" as="geometry" />
        </mxCell>
        <mxCell id="LhNx0IezDrV9IMbFQ53--41" value="String email&#xa;String password&#xa;String name" style="align=left;strokeColor=none;fillColor=none;spacingLeft=4;fontSize=12;verticalAlign=top;resizable=0;rotatable=0;part=1;" vertex="1" parent="LhNx0IezDrV9IMbFQ53--40">
          <mxGeometry y="30" width="160" height="90" as="geometry" />
        </mxCell>
        <mxCell id="LhNx0IezDrV9IMbFQ53--42" value="Goods Tag" style="swimlane;childLayout=stackLayout;horizontal=1;startSize=30;horizontalStack=0;rounded=1;fontSize=14;fontStyle=0;strokeWidth=2;resizeParent=0;resizeLast=1;shadow=0;dashed=0;align=center;" vertex="1" parent="1">
          <mxGeometry x="840" y="160" width="160" height="120" as="geometry" />
        </mxCell>
        <mxCell id="LhNx0IezDrV9IMbFQ53--43" value="Long id&#xa;Tag tag&#xa;Goods goods" style="align=left;strokeColor=none;fillColor=none;spacingLeft=4;fontSize=12;verticalAlign=top;resizable=0;rotatable=0;part=1;" vertex="1" parent="LhNx0IezDrV9IMbFQ53--42">
          <mxGeometry y="30" width="160" height="90" as="geometry" />
        </mxCell>
        <mxCell id="LhNx0IezDrV9IMbFQ53--44" value="Tag" style="swimlane;childLayout=stackLayout;horizontal=1;startSize=30;horizontalStack=0;rounded=1;fontSize=14;fontStyle=0;strokeWidth=2;resizeParent=0;resizeLast=1;shadow=0;dashed=0;align=center;" vertex="1" parent="1">
          <mxGeometry x="560" y="160" width="160" height="120" as="geometry" />
        </mxCell>
        <mxCell id="LhNx0IezDrV9IMbFQ53--45" value="Long id&#xa;String name&#xa;" style="align=left;strokeColor=none;fillColor=none;spacingLeft=4;fontSize=12;verticalAlign=top;resizable=0;rotatable=0;part=1;" vertex="1" parent="LhNx0IezDrV9IMbFQ53--44">
          <mxGeometry y="30" width="160" height="90" as="geometry" />
        </mxCell>
        <mxCell id="LhNx0IezDrV9IMbFQ53--46" value="Best" style="swimlane;childLayout=stackLayout;horizontal=1;startSize=30;horizontalStack=0;rounded=1;fontSize=14;fontStyle=0;strokeWidth=2;resizeParent=0;resizeLast=1;shadow=0;dashed=0;align=center;" vertex="1" parent="1">
          <mxGeometry x="1240" y="160" width="160" height="120" as="geometry" />
        </mxCell>
        <mxCell id="LhNx0IezDrV9IMbFQ53--47" value="Long id&#xa;Goods goods (Unique)&#xa;Double score&#xa;" style="align=left;strokeColor=none;fillColor=none;spacingLeft=4;fontSize=12;verticalAlign=top;resizable=0;rotatable=0;part=1;" vertex="1" parent="LhNx0IezDrV9IMbFQ53--46">
          <mxGeometry y="30" width="160" height="90" as="geometry" />
        </mxCell>
        <mxCell id="LhNx0IezDrV9IMbFQ53--49" value="Goods Option" style="swimlane;childLayout=stackLayout;horizontal=1;startSize=30;horizontalStack=0;rounded=1;fontSize=14;fontStyle=0;strokeWidth=2;resizeParent=0;resizeLast=1;shadow=0;dashed=0;align=center;" vertex="1" parent="1">
          <mxGeometry x="1440" y="360" width="160" height="120" as="geometry" />
        </mxCell>
        <mxCell id="LhNx0IezDrV9IMbFQ53--50" value="Long id&#xa;Goods goods&#xa;Integer count&#xa;Money surchange" style="align=left;strokeColor=none;fillColor=none;spacingLeft=4;fontSize=12;verticalAlign=top;resizable=0;rotatable=0;part=1;" vertex="1" parent="LhNx0IezDrV9IMbFQ53--49">
          <mxGeometry y="30" width="160" height="90" as="geometry" />
        </mxCell>
        <mxCell id="LhNx0IezDrV9IMbFQ53--51" value="Category Goods" style="swimlane;childLayout=stackLayout;horizontal=1;startSize=30;horizontalStack=0;rounded=1;fontSize=14;fontStyle=0;strokeWidth=2;resizeParent=0;resizeLast=1;shadow=0;dashed=0;align=center;" vertex="1" parent="1">
          <mxGeometry x="1440" y="640" width="160" height="120" as="geometry" />
        </mxCell>
        <mxCell id="LhNx0IezDrV9IMbFQ53--52" value="Long id&#xa;Goods goods&#xa;Category category" style="align=left;strokeColor=none;fillColor=none;spacingLeft=4;fontSize=12;verticalAlign=top;resizable=0;rotatable=0;part=1;" vertex="1" parent="LhNx0IezDrV9IMbFQ53--51">
          <mxGeometry y="30" width="160" height="90" as="geometry" />
        </mxCell>
        <mxCell id="LhNx0IezDrV9IMbFQ53--53" value="Delivery Goods" style="swimlane;childLayout=stackLayout;horizontal=1;startSize=30;horizontalStack=0;rounded=1;fontSize=14;fontStyle=0;strokeWidth=2;resizeParent=0;resizeLast=1;shadow=0;dashed=0;align=center;" vertex="1" parent="1">
          <mxGeometry x="1040" y="600" width="170" height="120" as="geometry" />
        </mxCell>
        <mxCell id="LhNx0IezDrV9IMbFQ53--54" value="LocalDateTime refundPeriod" style="align=left;strokeColor=none;fillColor=none;spacingLeft=4;fontSize=12;verticalAlign=top;resizable=0;rotatable=0;part=1;" vertex="1" parent="LhNx0IezDrV9IMbFQ53--53">
          <mxGeometry y="30" width="170" height="90" as="geometry" />
        </mxCell>
        <mxCell id="LhNx0IezDrV9IMbFQ53--55" value="Service Goods" style="swimlane;childLayout=stackLayout;horizontal=1;startSize=30;horizontalStack=0;rounded=1;fontSize=14;fontStyle=0;strokeWidth=2;resizeParent=0;resizeLast=1;shadow=0;dashed=0;align=center;" vertex="1" parent="1">
          <mxGeometry x="1040" y="760" width="160" height="120" as="geometry" />
        </mxCell>
        <mxCell id="LhNx0IezDrV9IMbFQ53--56" value="LocalDateTime expiryDate&#xa;String description" style="align=left;strokeColor=none;fillColor=none;spacingLeft=4;fontSize=12;verticalAlign=top;resizable=0;rotatable=0;part=1;" vertex="1" parent="LhNx0IezDrV9IMbFQ53--55">
          <mxGeometry y="30" width="160" height="90" as="geometry" />
        </mxCell>
        <mxCell id="LhNx0IezDrV9IMbFQ53--57" value="Category" style="swimlane;childLayout=stackLayout;horizontal=1;startSize=30;horizontalStack=0;rounded=1;fontSize=14;fontStyle=1;strokeWidth=2;resizeParent=0;resizeLast=1;shadow=0;dashed=0;align=center;" vertex="1" parent="1">
          <mxGeometry x="1720" y="640" width="160" height="120" as="geometry" />
        </mxCell>
        <mxCell id="LhNx0IezDrV9IMbFQ53--58" value="Long id&#xa;String name" style="align=left;strokeColor=none;fillColor=none;spacingLeft=4;fontSize=12;verticalAlign=top;resizable=0;rotatable=0;part=1;" vertex="1" parent="LhNx0IezDrV9IMbFQ53--57">
          <mxGeometry y="30" width="160" height="90" as="geometry" />
        </mxCell>
        <mxCell id="LhNx0IezDrV9IMbFQ53--59" value="Category Closer" style="swimlane;childLayout=stackLayout;horizontal=1;startSize=30;horizontalStack=0;rounded=1;fontSize=14;fontStyle=1;strokeWidth=2;resizeParent=0;resizeLast=1;shadow=0;dashed=0;align=center;" vertex="1" parent="1">
          <mxGeometry x="2000" y="640" width="160" height="120" as="geometry" />
        </mxCell>
        <mxCell id="LhNx0IezDrV9IMbFQ53--60" value="Long id&#xa;Category ancestor&#xa;Category descendant&#xa;Integer pathLength" style="align=left;strokeColor=none;fillColor=none;spacingLeft=4;fontSize=12;verticalAlign=top;resizable=0;rotatable=0;part=1;" vertex="1" parent="LhNx0IezDrV9IMbFQ53--59">
          <mxGeometry y="30" width="160" height="90" as="geometry" />
        </mxCell>
        <mxCell id="LhNx0IezDrV9IMbFQ53--66" value="ContactNumber&#xa;&lt;&lt;Embadded Type&gt;&gt; " style="swimlane;childLayout=stackLayout;horizontal=1;startSize=50;horizontalStack=0;rounded=1;fontSize=14;fontStyle=0;strokeWidth=2;resizeParent=0;resizeLast=1;shadow=0;dashed=0;align=center;" vertex="1" parent="1">
          <mxGeometry x="40" y="880" width="160" height="120" as="geometry" />
        </mxCell>
        <mxCell id="LhNx0IezDrV9IMbFQ53--67" value="Integer areaCode&#xa;Integer phoneNumber&#xa;Integer dialingCode&#xa;Integer delimiter" style="align=left;strokeColor=none;fillColor=none;spacingLeft=4;fontSize=12;verticalAlign=top;resizable=0;rotatable=0;part=1;" vertex="1" parent="LhNx0IezDrV9IMbFQ53--66">
          <mxGeometry y="50" width="160" height="70" as="geometry" />
        </mxCell>
        <mxCell id="LhNx0IezDrV9IMbFQ53--68" value="Money&#xa;&lt;&lt;Value Type&gt;&gt; " style="swimlane;childLayout=stackLayout;horizontal=1;startSize=50;horizontalStack=0;rounded=1;fontSize=14;fontStyle=0;strokeWidth=2;resizeParent=0;resizeLast=1;shadow=0;dashed=0;align=center;" vertex="1" parent="1">
          <mxGeometry x="320" y="920" width="160" height="120" as="geometry" />
        </mxCell>
        <mxCell id="LhNx0IezDrV9IMbFQ53--69" value="BigDecimal amount&#xa;Money ZERO" style="align=left;strokeColor=none;fillColor=none;spacingLeft=4;fontSize=12;verticalAlign=top;resizable=0;rotatable=0;part=1;" vertex="1" parent="LhNx0IezDrV9IMbFQ53--68">
          <mxGeometry y="50" width="160" height="70" as="geometry" />
        </mxCell>
        <mxCell id="LhNx0IezDrV9IMbFQ53--78" value="Address&#xa;&lt;&lt;Embadded Type&gt;&gt; " style="swimlane;childLayout=stackLayout;horizontal=1;startSize=50;horizontalStack=0;rounded=1;fontSize=14;fontStyle=0;strokeWidth=2;resizeParent=0;resizeLast=1;shadow=0;dashed=0;align=center;" vertex="1" parent="1">
          <mxGeometry x="560" y="1600" width="160" height="120" as="geometry" />
        </mxCell>
        <mxCell id="LhNx0IezDrV9IMbFQ53--79" value="String city&#xa;String street&#xa;String zipCode" style="align=left;strokeColor=none;fillColor=none;spacingLeft=4;fontSize=12;verticalAlign=top;resizable=0;rotatable=0;part=1;" vertex="1" parent="LhNx0IezDrV9IMbFQ53--78">
          <mxGeometry y="50" width="160" height="70" as="geometry" />
        </mxCell>
        <mxCell id="LhNx0IezDrV9IMbFQ53--88" value="SystemFile&#xa;&lt;&lt;Embadded Type&gt;&gt; " style="swimlane;childLayout=stackLayout;horizontal=1;startSize=50;horizontalStack=0;rounded=1;fontSize=14;fontStyle=0;strokeWidth=2;resizeParent=0;resizeLast=1;shadow=0;dashed=0;align=center;" vertex="1" parent="1">
          <mxGeometry x="1240" y="360" width="160" height="120" as="geometry" />
        </mxCell>
        <mxCell id="LhNx0IezDrV9IMbFQ53--89" value="String absolutePath&#xa;String filename&#xa;String ext" style="align=left;strokeColor=none;fillColor=none;spacingLeft=4;fontSize=12;verticalAlign=top;resizable=0;rotatable=0;part=1;" vertex="1" parent="LhNx0IezDrV9IMbFQ53--88">
          <mxGeometry y="50" width="160" height="70" as="geometry" />
        </mxCell>
        <mxCell id="LhNx0IezDrV9IMbFQ53--91" value="Ratio&#xa;&lt;&lt;Value Type&gt;&gt; " style="swimlane;childLayout=stackLayout;horizontal=1;startSize=50;horizontalStack=0;rounded=1;fontSize=14;fontStyle=0;strokeWidth=2;resizeParent=0;resizeLast=1;shadow=0;dashed=0;align=center;" vertex="1" parent="1">
          <mxGeometry x="800" y="440" width="160" height="120" as="geometry" />
        </mxCell>
        <mxCell id="LhNx0IezDrV9IMbFQ53--92" value="Double rate" style="align=left;strokeColor=none;fillColor=none;spacingLeft=4;fontSize=12;verticalAlign=top;resizable=0;rotatable=0;part=1;" vertex="1" parent="LhNx0IezDrV9IMbFQ53--91">
          <mxGeometry y="50" width="160" height="70" as="geometry" />
        </mxCell>
      </root>
    </mxGraphModel>
  </diagram>
</mxfile>
